<?xml version="1.0" standalone="no"?>
<!DOCTYPE svg PUBLIC "-//W3C//DTD SVG 20010904//EN"
 "http://www.w3.org/TR/2001/REC-SVG-20010904/DTD/svg10.dtd">
<svg version="1.0" xmlns="http://www.w3.org/2000/svg"
 width="288.000000pt" height="90.000000pt" viewBox="0 0 288.000000 90.000000"
 preserveAspectRatio="xMidYMid meet">

<g transform="translate(0.000000,90.000000) scale(0.100000,-0.100000)"
fill="#000000" stroke="none">
<path d="M868 764 c-16 -8 -28 -10 -28 -4 0 5 -9 10 -20 10 -13 0 -32 -19 -56
-54 -21 -32 -45 -57 -60 -60 -13 -4 -40 -22 -60 -42 l-35 -36 -23 21 c-12 11
-36 24 -54 27 -25 5 -34 14 -43 43 -19 59 -60 92 -72 59 -3 -9 -12 -6 -30 11
-43 39 -76 5 -47 -49 8 -14 5 -19 -11 -23 -33 -9 -19 -38 40 -79 49 -34 53
-40 56 -81 6 -95 97 -206 233 -286 l67 -39 22 38 c12 20 37 73 55 116 27 66
33 93 34 167 l2 88 43 37 c24 20 52 46 61 57 20 23 23 9 7 -32 -25 -67 11
-126 127 -204 100 -67 119 -108 69 -147 -21 -17 -32 -18 -71 -11 -26 5 -67 20
-92 34 -24 14 -48 25 -53 25 -13 0 -53 -140 -43 -150 21 -19 174 -62 235 -66
106 -5 170 44 185 143 13 86 -12 129 -144 241 -50 43 -62 59 -62 82 0 40 28
53 105 48 l63 -4 15 49 16 49 -35 14 c-50 21 -142 28 -192 15 -23 -7 -59 -26
-79 -44 -22 -19 -34 -25 -30 -15 7 21 -11 29 -37 15 -16 -8 -18 -7 -12 9 4 11
8 23 9 28 3 16 -27 16 -55 0z m42 -7 c0 -7 -17 -33 -37 -57 -38 -45 -33 -45
23 -3 32 24 54 30 54 14 0 -5 -27 -33 -60 -61 l-61 -53 -27 25 c-15 14 -35 29
-44 34 -15 8 -13 14 18 57 32 45 63 64 50 32 -3 -8 -9 -23 -13 -32 -4 -10 12
-2 35 20 44 39 62 46 62 24z m296 2 c32 -6 63 -14 68 -19 4 -4 3 -24 -3 -43
l-12 -35 -52 4 c-91 9 -148 -38 -117 -95 6 -12 46 -50 89 -86 87 -72 111 -111
111 -179 0 -118 -51 -162 -179 -154 -71 5 -183 36 -204 57 -8 8 7 100 20 123
2 4 31 -7 65 -24 108 -55 188 -37 188 41 0 34 -21 57 -114 121 -114 79 -137
140 -84 228 38 62 109 82 224 61z m-806 -53 c16 -32 27 -33 26 -5 -1 33 21 34
37 2 25 -48 23 -67 -8 -106 l-31 -36 -49 37 c-26 20 -50 43 -53 50 -5 16 30
16 46 0 19 -19 13 5 -8 32 -31 39 -25 78 9 60 9 -4 23 -20 31 -34z m368 -70
c60 -33 78 -119 46 -225 -14 -47 -78 -199 -89 -209 -9 -10 -122 65 -180 120
-97 90 -134 197 -91 262 29 46 98 43 142 -5 17 -19 18 -19 47 17 43 52 82 65
125 40z"/>
<path d="M595 495 c-71 -70 22 -258 102 -207 23 15 44 81 37 120 -17 97 -86
141 -139 87z m76 5 c29 -16 49 -64 49 -118 0 -105 -71 -124 -117 -32 -29 55
-29 100 -2 134 22 28 39 32 70 16z"/>
<path d="M1386 748 c-9 -43 -38 -598 -32 -613 4 -11 20 -15 59 -15 l54 0 7 37
c3 21 6 93 6 160 l0 122 53 15 c76 23 122 58 142 109 22 59 8 113 -40 156 -43
37 -90 51 -177 51 -62 0 -68 -2 -72 -22z m201 -12 c34 -16 57 -35 68 -56 23
-44 22 -106 -2 -139 -23 -31 -94 -69 -145 -78 l-38 -6 0 -52 c0 -28 -3 -100
-7 -158 l-6 -107 -49 0 c-32 0 -48 4 -48 13 0 38 32 547 36 575 l5 32 67 0
c50 0 80 -6 119 -24z"/>
<path d="M1497 668 c-3 -13 -9 -49 -12 -80 -7 -56 -7 -58 16 -58 35 0 88 36
95 65 8 31 -17 72 -52 85 -36 14 -41 13 -47 -12z m65 -10 c17 -13 21 -28 19
-60 -1 -19 -31 -41 -68 -53 -20 -6 -22 -3 -18 22 2 15 7 45 10 66 6 40 26 48
57 25z"/>
<path d="M1726 729 c-5 -30 -39 -397 -51 -539 -4 -50 -4 -51 4 -15 5 22 18
146 30 275 30 329 22 299 79 292 26 -2 48 -5 49 -6 1 -1 -12 -108 -29 -239
-17 -131 -28 -240 -25 -243 2 -3 33 -13 68 -23 35 -10 64 -22 64 -27 -1 -21
-17 -94 -21 -94 -2 0 -47 7 -100 15 -53 9 -98 14 -101 12 -4 -5 79 -21 169
-33 45 -6 47 -6 54 21 4 16 7 44 8 63 1 34 0 36 -55 52 -31 10 -61 20 -66 23
-9 6 -3 76 32 345 10 73 16 135 14 137 -2 1 -30 6 -61 10 l-57 7 -5 -33z"/>
<path d="M192 705 c-148 -74 -211 -218 -168 -383 42 -167 164 -252 360 -252
44 0 86 4 93 8 9 6 10 25 2 76 -11 84 -14 88 -45 76 -63 -24 -163 -2 -205 46
-47 54 -61 122 -35 173 15 29 74 85 97 93 10 3 10 21 0 94 -7 49 -16 92 -20
97 -4 4 -40 -9 -79 -28z m85 -67 c9 -71 8 -84 -5 -93 -124 -81 -142 -185 -48
-279 50 -51 106 -68 181 -56 28 4 51 7 52 6 1 -1 3 -31 5 -66 l3 -65 -72 -3
c-227 -9 -366 119 -367 338 0 95 28 163 91 221 40 37 113 78 139 79 6 0 15
-37 21 -82z"/>
<path d="M2120 628 c-18 -57 -59 -191 -91 -298 -33 -107 -62 -203 -65 -212 -4
-13 6 -19 51 -28 31 -6 58 -10 60 -8 2 2 11 28 19 58 58 215 55 207 85 202 27
-4 29 -8 56 -134 l29 -130 55 6 c30 4 56 8 58 10 1 1 -22 143 -52 315 -30 172
-55 314 -55 317 0 2 -27 4 -60 4 l-59 0 -31 -102z m189 -214 c29 -168 52 -307
50 -308 -8 -7 -89 -17 -89 -12 0 36 -56 244 -68 254 -15 11 -62 17 -62 7 0
-10 -70 -258 -74 -262 -2 -2 -24 1 -49 8 -41 10 -45 13 -37 33 5 11 39 120 75
241 37 121 75 248 86 283 l21 62 47 0 47 0 53 -306z"/>
<path d="M2177 538 c-33 -114 -34 -108 8 -108 l37 0 -7 73 c-4 39 -11 76 -15
80 -4 5 -15 -15 -23 -45z m28 -96 c-2 -2 -12 -2 -23 0 -19 3 -19 5 -4 53 l15
50 8 -50 c4 -27 6 -51 4 -53z"/>
<path d="M2697 639 l-56 -92 -14 34 c-7 19 -22 58 -31 87 l-18 52 -59 0 c-41
0 -59 -4 -59 -12 0 -7 25 -80 54 -162 l54 -149 -71 -143 c-43 -89 -67 -148
-61 -153 5 -5 21 -12 35 -16 21 -5 40 7 126 82 56 48 102 93 102 98 1 6 -15
20 -35 33 l-36 23 18 27 c17 26 192 303 208 330 5 8 -3 17 -26 26 -78 32 -72
35 -131 -65z m141 46 c2 -2 -48 -85 -112 -184 l-115 -181 39 -26 c22 -15 40
-28 40 -29 0 -1 -45 -41 -100 -89 -87 -76 -102 -86 -120 -76 -11 6 -20 15 -20
20 0 6 30 70 66 142 59 118 65 135 56 162 -5 17 -30 88 -55 159 l-46 127 48 0
49 0 32 -90 c18 -49 36 -90 39 -90 4 0 18 19 31 43 13 23 38 65 56 94 l33 52
38 -15 c21 -9 40 -18 41 -19z"/>
</g>
</svg>
